<?xml version="1.0" encoding="utf-8"?>
<!-- Generator: Adobe Illustrator 24.0.1, SVG Export Plug-In . SVG Version: 6.00 Build 0)  -->
<svg version="1.1" id="Layer_1" xmlns="http://www.w3.org/2000/svg" xmlns:xlink="http://www.w3.org/1999/xlink" x="0px" y="0px"
	 viewBox="0 0 512 512" style="enable-background:new 0 0 512 512;" xml:space="preserve">
<style type="text/css">
	.st0{fill:#3F3F3F;}
	.st1{fill-rule:evenodd;clip-rule:evenodd;fill:#EF6F0B;}
	.st2{fill-rule:evenodd;clip-rule:evenodd;fill:#3F3F3F;}
</style>
<g id="icon_1_">
	<g id="Buy">
		<path id="Buy_2" class="st2" d="M491.14,124.72c-9.9-11.69-24.3-18.4-39.44-18.4H183.67c-10.33,0-18.71,8.55-18.71,19.09
			c0,10.54,8.38,19.09,18.71,19.09H451.7c5.86,0,9.5,3.26,11.15,5.19c1.65,1.96,4.29,6.11,3.44,12.02l-23.67,166.96
			c-1.87,13.08-13.05,22.96-26.02,22.96H144.44c-13.79,0-25.04-10.56-26.19-24.56L94.22,35.04c-0.7-8.65-7.06-15.76-15.44-17.23
			L26.87,8.62C16.57,6.94,6.99,13.78,5.24,24.19C3.5,34.58,10.31,44.46,20.49,46.26l37.67,6.64l22.8,277.34
			c2.79,33.96,30.08,59.57,63.48,59.57H416.6c31.46,0,58.54-23.93,63.04-55.67l23.7-166.96
			C505.51,151.85,501.04,136.4,491.14,124.72z M102.46,468.72c0-21.25,16.96-38.57,37.79-38.57c20.83,0,37.77,17.31,37.77,38.57
			c0,21.25-16.94,38.54-37.77,38.54C119.42,507.26,102.46,489.98,102.46,468.72z M383.16,468.72c0-21.25,16.94-38.57,37.77-38.57
			c20.83,0,37.79,17.31,37.79,38.57c0,21.25-16.96,38.54-37.79,38.54C400.09,507.26,383.16,489.98,383.16,468.72z M395.33,219.5
			c0,10.54-8.38,19.09-18.71,19.09h-69.17c-10.35,0-18.71-8.55-18.71-19.09c0-10.54,8.36-19.09,18.71-19.09h69.17
			C386.95,200.41,395.33,208.97,395.33,219.5z"/>
	</g>
</g>
</svg>
