<?xml version="1.0" encoding="utf-8"?>
<!-- Generator: Adobe Illustrator 24.0.1, SVG Export Plug-In . SVG Version: 6.00 Build 0)  -->
<svg version="1.1" id="Layer_1" xmlns="http://www.w3.org/2000/svg" xmlns:xlink="http://www.w3.org/1999/xlink" x="0px" y="0px"
	 viewBox="0 0 512 512" style="enable-background:new 0 0 512 512;" xml:space="preserve">
<style type="text/css">
	.st0{fill-rule:evenodd;clip-rule:evenodd;fill:#EF6F0B;}
</style>
<path class="st0" d="M228.06,26.18c0-12.66,10.43-22.94,23.28-22.94s23.28,10.28,23.28,22.94V484.9c0,9.3-5.68,17.65-14.4,21.19
	c-2.85,1.16-5.86,1.74-8.88,1.74c-6.05,0-12.04-2.32-16.48-6.76l-187-185.02c-9.06-8.96-9.03-23.49,0.06-32.42
	c9.12-8.93,23.87-8.93,32.93,0.06l147.21,145.66L228.06,26.18L228.06,26.18z M421.81,283.7c9.06-8.99,23.81-8.99,32.93-0.06
	c9.09,8.93,9.12,23.46,0.06,32.45L351.67,418.11c-4.56,4.52-10.52,6.76-16.51,6.76c-5.93,0-11.86-2.23-16.42-6.7
	c-9.12-8.93-9.16-23.42-0.06-32.41L421.81,283.7z"/>
</svg>
