<?xml version="1.0" encoding="utf-8"?>
<!-- Generator: Adobe Illustrator 24.0.1, SVG Export Plug-In . SVG Version: 6.00 Build 0)  -->
<svg version="1.1" id="Layer_1" xmlns="http://www.w3.org/2000/svg" xmlns:xlink="http://www.w3.org/1999/xlink" x="0px" y="0px"
	 viewBox="0 0 512 512" style="enable-background:new 0 0 512 512;" xml:space="preserve">
<style type="text/css">
	.st0{fill:#3F3F3F;}
	.st1{fill-rule:evenodd;clip-rule:evenodd;fill:#EF6F0B;}
</style>
<path class="st1" d="M120.49,14.28c-10.14,10.05-10.21,26.34,0.07,36.38l152.05,148.9l2.69,2.29c10.28,7.64,24.97,6.84,34.3-2.4
	c5.05-5.01,7.63-11.59,7.63-18.14c0-6.58-2.58-13.2-7.7-18.21L157.48,14.17l-2.69-2.29C144.51,4.24,129.82,5.04,120.49,14.28z
	 M118.2,465.39c-7.85,10.08-7.01,24.54,2.29,33.75c10.18,10.05,26.74,10.08,36.98,0.03L386.41,274.9l2.35-2.63
	c3.56-4.57,5.35-10.07,5.35-15.58c0-6.55-2.58-13.13-7.64-18.14c-10.18-10.08-26.73-10.12-36.98-0.07L120.56,462.75L118.2,465.39z"
	/>
</svg>
