<?xml version="1.0" encoding="utf-8"?>
<!-- Generator: Adobe Illustrator 24.0.1, SVG Export Plug-In . SVG Version: 6.00 Build 0)  -->
<svg version="1.1" id="Layer_1" xmlns="http://www.w3.org/2000/svg" xmlns:xlink="http://www.w3.org/1999/xlink" x="0px" y="0px"
	 viewBox="0 0 512 512" style="enable-background:new 0 0 512 512;" xml:space="preserve">
<style type="text/css">
	.st0{fill:#3F3F3F;}
	.st1{fill-rule:evenodd;clip-rule:evenodd;fill:#3F3F3F;}
</style>
<g id="icon">
	<g id="Heart">
		<path id="Heart_2" class="st1" d="M352.73,16.06c15.92,0,31.81,2.25,46.93,7.32c93.12,30.27,126.68,132.45,98.65,221.76
			c-15.89,45.64-41.88,87.29-75.91,121.33c-48.72,47.18-102.18,89.06-159.72,125.14l-6.31,3.81l-6.56-4.06
			c-57.75-35.82-111.51-77.71-160.68-125.14c-33.81-34.03-59.82-75.43-75.96-121.07c-28.51-89.31,5.05-191.49,99.18-222.29
			c7.32-2.52,14.86-4.29,22.43-5.27h3.03c7.09-1.03,14.13-1.51,21.19-1.51h2.78c15.89,0.48,31.28,3.25,46.19,8.33h1.49
			c1.01,0.48,1.77,1.01,2.27,1.49c5.58,1.79,10.85,3.81,15.89,6.58l9.59,4.29c2.32,1.24,4.92,3.12,7.16,4.75
			c1.42,1.03,2.71,1.96,3.68,2.56c0.41,0.24,0.83,0.49,1.25,0.73c2.16,1.26,4.42,2.58,6.32,4.04
			C283.63,27.41,317.66,15.81,352.73,16.06z M419.84,197.71c10.34-0.28,19.17-8.58,19.93-19.2v-3
			c0.76-35.35-20.66-67.36-53.23-79.72c-10.34-3.56-21.7,2.02-25.48,12.61c-3.53,10.6,2.02,22.2,12.61,25.96
			c16.17,6.05,27,21.97,27,39.61v0.78c-0.48,5.78,1.26,11.35,4.79,15.64C408.99,194.68,414.29,197.18,419.84,197.71z"/>
	</g>
</g>
</svg>
