<?xml version="1.0" encoding="utf-8"?>
<!-- Generator: Adobe Illustrator 24.0.1, SVG Export Plug-In . SVG Version: 6.00 Build 0)  -->
<svg version="1.1" id="Layer_1" xmlns="http://www.w3.org/2000/svg" xmlns:xlink="http://www.w3.org/1999/xlink" x="0px" y="0px"
	 viewBox="0 0 512 512" style="enable-background:new 0 0 512 512;" xml:space="preserve">
<style type="text/css">
	.st0{fill:#3F3F3F;}
	.st1{fill-rule:evenodd;clip-rule:evenodd;fill:#3F3F3F;}
</style>
<g id="Icon">
	<g id="Heart_1_">
		<path id="Heart_2_1_" class="st1" d="M394.35,26.47c40.67,12.65,74.49,41.7,93.6,80.4c22.34,46.91,25.38,100.96,8.45,150.16
			c-15.58,45.29-41.14,86.35-74.7,120.04c-22.01,22.62-45.72,43.44-70.92,62.28l-1.33,1.13c-8.37,5.64-19.63,3.42-25.34-4.98
			c-2.9-4.06-4.07-9.14-3.23-14.09c0.84-4.95,3.61-9.34,7.68-12.18c23.65-17.82,45.94-37.43,66.69-58.66
			c29.89-29.41,52.71-65.45,66.69-105.32c13.45-39.72,10.73-83.28-7.56-120.94c-14.72-29.63-40.64-51.87-71.81-61.6
			c-39.75-12.66-83.06-4.99-116.27,20.61c-6.6,4.98-15.63,4.98-22.23,0c-33.2-25.63-76.52-33.31-116.27-20.61
			c-31.37,9.52-57.56,31.69-72.47,61.38c-17.87,37.64-20.43,80.94-7.11,120.49c14.04,39.77,36.86,75.72,66.69,105.09
			c44.08,43.06,92.69,81.04,144.95,113.24c6.65,4.7,9.57,13.22,7.24,21.11c-2.33,7.89-9.38,13.36-17.47,13.54
			c-3.65,0.02-7.21-1.08-10.23-3.17c-54.44-33.54-105.06-73.11-150.95-118c-33.75-33.57-59.39-74.66-74.92-120.04
			C-2.82,207.22,0.53,153.5,22.86,106.88c19.11-38.7,52.92-67.75,93.6-80.4c46.76-14.71,97.49-7.93,138.95,18.57
			C296.86,18.54,347.59,11.76,394.35,26.47z M376.12,199.96c-0.93-20.93-14.61-39.03-34.24-45.3c-7.3-4.64-10.54-13.76-7.85-22.08
			c2.69-8.32,10.61-13.7,19.19-13.02c33.15,10.66,56.74,40.6,59.8,75.87c0.63,4.93-0.71,9.91-3.72,13.83
			c-3.01,3.92-7.43,6.44-12.28,7C386.84,217.61,377.5,210.33,376.12,199.96z"/>
	</g>
</g>
</svg>
