<?xml version="1.0" encoding="utf-8"?>
<!-- Generator: Adobe Illustrator 24.0.1, SVG Export Plug-In . SVG Version: 6.00 Build 0)  -->
<svg version="1.1" id="Layer_1" xmlns="http://www.w3.org/2000/svg" xmlns:xlink="http://www.w3.org/1999/xlink" x="0px" y="0px"
	 viewBox="0 0 512 512" style="enable-background:new 0 0 512 512;" xml:space="preserve">
<style type="text/css">
	.st0{fill:#3F3F3F;}
	.st1{fill-rule:evenodd;clip-rule:evenodd;fill:#EF6F0B;}
</style>
<g id="icon_1_">
	<g id="Document">
		<path id="Document_2" class="st1" d="M159.27,2.12H354.8c81.44,0,130.21,49.46,130.43,132.03v242.8
			c0,82.58-48.55,132.03-130.21,132.03h-72.39c-9.28-1.04-16.31-8.99-16.31-18.46c0-9.47,7.03-17.42,16.31-18.46h72.17
			c62.24,0,93.57-32,93.57-95.11v-242.8c0-63.11-31.34-95.11-93.57-95.11H159.27c-62.24,0-93.8,32-93.8,95.11v242.8
			c0,63.11,31.56,95.11,93.8,95.11c9.28,1.04,16.31,8.99,16.31,18.46c0,9.47-7.03,17.42-16.31,18.46
			c-81.44,0-130.21-49.46-130.21-132.03v-242.8C29.06,51.36,77.83,2.12,159.27,2.12z M165.67,166.83h69.52
			c9.28-1.04,16.31-8.99,16.31-18.46c0-9.47-7.03-17.42-16.31-18.46h-69.52c-9.28,1.04-16.31,8.99-16.31,18.46
			C149.36,157.84,156.38,165.79,165.67,166.83z M348.18,274.02H165.67h-0.22c-9.28-1.04-16.31-8.99-16.31-18.46
			s7.03-17.42,16.31-18.46h182.74c6.98-0.78,13.79,2.56,17.52,8.59c3.73,6.03,3.73,13.7,0,19.74
			C361.98,271.46,355.17,274.8,348.18,274.02z M348.18,381.21H165.67h-0.22c-10,0-18.1-8.22-18.1-18.35s8.1-18.35,18.1-18.35h182.74
			c9.99,0,18.1,8.22,18.1,18.35S358.18,381.21,348.18,381.21z"/>
	</g>
</g>
</svg>
