<?xml version="1.0" encoding="utf-8"?>
<!-- Generator: Adobe Illustrator 24.0.1, SVG Export Plug-In . SVG Version: 6.00 Build 0)  -->
<svg version="1.1" id="Layer_1" xmlns="http://www.w3.org/2000/svg" xmlns:xlink="http://www.w3.org/1999/xlink" x="0px" y="0px"
	 viewBox="0 0 512 512" style="enable-background:new 0 0 512 512;" xml:space="preserve">
<style type="text/css">
	.st0{fill:#3F3F3F;}
</style>
<g>
	<path class="st0" d="M182.07,166.87c0,8.86-7.19,16.05-16.04,16.05c-8.85,0-16.04-7.19-16.04-16.05
		c0-58.41,47.47-105.91,105.83-105.91c58.34,0,105.81,47.5,105.81,105.91s-47.47,105.91-105.81,105.91
		c-23.89,0-46.4-7.68-65.09-22.24c-6.99-5.44-8.25-15.52-2.82-22.52c5.41-7.02,15.52-8.26,22.52-2.8c13,10.1,28.7,15.45,45.4,15.45
		c40.67,0,73.73-33.11,73.73-73.8s-33.06-73.8-73.73-73.8S182.07,126.18,182.07,166.87z"/>
	<path class="st0" d="M140.47,233.56c0,8.86-7.19,16.05-16.04,16.05c-46.17,0-83.74-37.59-83.74-83.8S78.26,82,124.43,82
		c8.85,0,16.04,7.19,16.04,16.05c0,8.86-7.19,16.05-16.04,16.05c-28.48,0-51.66,23.2-51.66,51.71s23.18,51.69,51.66,51.69
		C133.28,217.51,140.47,224.7,140.47,233.56z"/>
	<path class="st0" d="M94.38,323.19c-10.31,0.69-20.66,2.2-30.77,4.47c-15.52,3.06-26.2,8.28-28.95,14.06
		c-2.07,4.39-2.07,9.46,0,13.85c1.33,2.76,6.71,9.63,28.68,14.15c8.68,1.78,14.26,10.25,12.49,18.94
		c-1.54,7.6-8.23,12.82-15.7,12.82c-1.07,0-2.14-0.11-3.23-0.32c-26.54-5.44-43.75-16.14-51.19-31.81
		c-6.27-13.16-6.27-28.25,0-41.42c7.53-15.82,24.78-26.5,51.3-31.72c11.31-2.53,23.31-4.26,35.22-5.05
		c8.55-0.66,16.49,6.08,17.09,14.92C109.9,314.95,103.23,322.62,94.38,323.19z"/>
	<path class="st0" d="M387.46,218.03c-8.85,0-16.04,7.19-16.04,16.05c0,8.86,7.18,16.05,16.04,16.05
		c46.06,0,83.55-37.52,83.55-83.63c0-46.13-37.49-83.63-83.55-83.63c-8.85,0-16.04,7.17-16.04,16.05c0,8.86,7.18,16.05,16.04,16.05
		c28.38,0,51.47,23.12,51.47,51.52C438.93,194.92,415.84,218.03,387.46,218.03z"/>
	<path class="st0" d="M455.09,296.62c26.11,5.18,43.32,15.82,50.83,31.55c6.27,13.16,6.27,28.23,0,41.4
		c-7.42,15.6-24.59,26.28-51.09,31.74c-1.07,0.24-2.16,0.34-3.25,0.34c-7.44,0-14.11-5.24-15.67-12.82
		c-1.77-8.69,3.81-17.19,12.49-18.96c21.88-4.52,27.27-11.37,28.57-14.11c2.07-4.37,2.07-9.4,0-13.76
		c-2.74-5.76-13.37-10.96-28.46-13.96c-10.5-2.31-20.85-3.83-31.07-4.52c-8.85-0.58-15.53-8.26-14.93-17.1
		c0.58-8.84,8.3-15.39,17.06-14.92C431.44,292.3,443.37,294.03,455.09,296.62z"/>
	<path class="st0" d="M255.81,305.99c-38.62,0-156.13,0-156.13,73.69c0,16.63,6.54,39.66,37.72,54.97
		c9.58,4.67,21.17,8.48,34.47,11.32c8.62,1.93,17.17-3.68,19.01-12.35c1.86-8.67-3.68-17.21-12.34-19.05
		c-10.73-2.29-19.84-5.24-27.03-8.78c-17.51-8.58-19.76-18.45-19.76-26.11c0-34.38,67.47-41.59,124.05-41.59
		c82.33,0,124.05,13.85,124.05,41.2c0,34.35-67.47,41.57-124.05,41.57c-8.85,0-16.04,7.19-16.04,16.05
		c0,8.86,7.18,16.05,16.04,16.05c38.62,0,156.13,0,156.13-73.67C411.94,305.99,298.52,305.99,255.81,305.99z"/>
</g>
</svg>
