<?xml version="1.0" encoding="utf-8"?>
<!-- Generator: Adobe Illustrator 24.0.1, SVG Export Plug-In . SVG Version: 6.00 Build 0)  -->
<svg version="1.1" id="Layer_1" xmlns="http://www.w3.org/2000/svg" xmlns:xlink="http://www.w3.org/1999/xlink" x="0px" y="0px"
	 viewBox="0 0 512 512" style="enable-background:new 0 0 512 512;" xml:space="preserve">
<style type="text/css">
	.st0{fill:#3F3F3F;}
	.st1{fill-rule:evenodd;clip-rule:evenodd;fill:#EF6F0B;}
</style>
<g id="icon">
	<g id="Category">
		<path id="Category_2" class="st1" d="M505.94,93.17v73.48c0.25,19.98-7.48,39.24-21.47,53.54c-13.99,14.3-33.11,22.47-53.15,22.72
			h-30.59c-10.36-1.11-18.22-9.83-18.22-20.22c0-10.39,7.86-19.11,18.22-20.22h29.66c9.38-0.06,18.35-3.85,24.92-10.53
			c6.57-6.68,10.19-15.7,10.07-25.05V93.17c-0.25-19.17-15.77-34.64-34.99-34.89h-73.93c-19.33,0-34.99,15.62-34.99,34.89v110.22
			c-0.38,11.18-9.64,20-20.86,19.87c-5.39-0.12-10.51-2.39-14.21-6.29c-3.7-3.91-5.68-9.13-5.49-14.5V93.17
			c-0.06-20.02,7.87-39.24,22.05-53.42c14.17-14.18,33.43-22.15,53.5-22.14h73.93C471.79,18.59,505.08,51.89,505.94,93.17z
			 M156.47,17.61H82.55C40.8,17.86,7.02,51.54,6.77,93.17v73.71c0.25,41.59,34.07,75.2,75.78,75.33h73.93
			c20.08,0.06,39.35-7.85,53.57-21.98c14.22-14.13,22.21-33.33,22.21-53.35V93.17C232.12,51.49,198.27,17.74,156.47,17.61z
			 M191.47,166.88c0.12,9.36-3.5,18.37-10.07,25.05c-6.57,6.68-15.54,10.47-24.92,10.53H82.55c-9.52,0.19-18.71-3.5-25.45-10.21
			c-6.73-6.72-10.43-15.88-10.24-25.37V93.17c0-9.38,3.78-18.36,10.49-24.92c6.71-6.56,15.79-10.16,25.19-9.97h73.93
			c19.27,0.13,34.87,15.67,34.99,34.89V166.88z M356.47,280.8h73.93c41.71,0.13,75.52,33.74,75.78,75.33v73.71
			c-0.25,41.63-34.03,75.31-75.78,75.56h-73.93c-41.71-0.25-75.42-33.97-75.55-75.56v-73.71
			C280.92,314.52,314.74,280.8,356.47,280.8z M455.2,454.58c6.58-6.56,10.24-15.47,10.18-24.74v-73.71
			c0-9.25-3.69-18.13-10.25-24.67c-6.56-6.54-15.46-10.22-24.74-10.22h-73.93c-19.33,0-34.99,15.62-34.99,34.89v73.71
			c-0.06,9.27,3.6,18.18,10.18,24.74c6.58,6.56,15.51,10.21,24.81,10.15h73.93C439.69,464.79,448.63,461.14,455.2,454.58z
			 M6.77,429.61v-73.48c0-20.02,7.99-39.21,22.21-53.35c14.22-14.13,33.49-22.04,53.57-21.98h30.36c7.76-0.83,15.32,2.83,19.46,9.43
			s4.14,14.97,0,21.57c-4.14,6.6-11.7,10.26-19.46,9.43H82.55c-19.36,0-35.1,15.58-35.22,34.89v72.79
			c0.49,19.15,16.01,34.53,35.22,34.89h74.39c9.32,0.06,18.28-3.59,24.89-10.14c6.61-6.55,10.33-15.46,10.33-24.75v-109.3
			c-1.51-8.16,2.1-16.42,9.13-20.87c7.03-4.45,16.06-4.18,22.82,0.66c6.76,4.84,9.89,13.3,7.9,21.36v108.84
			c0,41.73-33.93,75.56-75.78,75.56H82.55C41.06,504.31,7.63,470.98,6.77,429.61z"/>
	</g>
</g>
</svg>
