<?xml version="1.0" encoding="utf-8"?>
<!-- Generator: Adobe Illustrator 24.0.1, SVG Export Plug-In . SVG Version: 6.00 Build 0)  -->
<svg version="1.1" id="Layer_1" xmlns="http://www.w3.org/2000/svg" xmlns:xlink="http://www.w3.org/1999/xlink" x="0px" y="0px"
	 viewBox="0 0 512 512" style="enable-background:new 0 0 512 512;" xml:space="preserve">
<style type="text/css">
	.st0{fill:#3F3F3F;}
</style>
<g>
	<path class="st0" d="M102.17,148.96c0,10.53-8.56,19.08-19.1,19.08s-19.1-8.55-19.1-19.08c0-72.02,58.66-130.63,130.8-130.63
		c72.11,0,130.77,58.61,130.77,130.63c0,72.02-58.66,130.63-130.77,130.63c-29.55,0-57.39-9.49-80.47-27.45
		c-8.33-6.49-9.83-18.47-3.34-26.79c6.5-8.29,18.47-9.79,26.8-3.33c16.33,12.69,36.04,19.41,57.01,19.41
		c51.05,0,92.56-41.49,92.56-92.47c0-50.98-41.52-92.47-92.56-92.47C143.69,56.49,102.17,97.98,102.17,148.96z"/>
	<path class="st0" d="M339.39,232.38c0-10.53,8.56-19.08,19.1-19.08c35.79,0,64.88-29.08,64.88-64.8s-29.09-64.8-64.88-64.8
		c-10.55,0-19.1-8.55-19.1-19.08c0-10.53,8.56-19.08,19.1-19.08c56.85,0,103.08,46.2,103.08,102.95
		c0,56.78-46.23,102.95-103.08,102.95C347.95,251.46,339.39,242.92,339.39,232.38z"/>
	<path class="st0" d="M442.43,310.85c32.22,6.33,53.44,19.36,62.66,38.69c7.67,16.1,7.67,34.52,0,50.63
		c-9.09,19.16-30.29,32.26-62.97,38.95c-1.3,0.25-2.57,0.38-3.87,0.38c-8.86,0-16.84-6.21-18.67-15.24
		c-2.11-10.33,4.53-20.4,14.88-22.51c19.43-3.97,32.6-10.51,36.12-17.94c2.7-5.7,2.7-12.21,0.03-17.86
		c-3.59-7.48-16.71-13.97-36.02-17.76c-13.04-2.9-25.93-4.76-38.79-5.62c-10.52-0.74-18.47-9.82-17.73-20.33
		c0.71-10.56,10.01-18.29,20.35-17.76C413.16,305.51,427.96,307.65,442.43,310.85z"/>
	<path class="st0" d="M194.75,322.49c-47.84,0-193.38,0-193.38,90.64c0,20.35,8.07,48.62,46.46,67.44
		c11.84,5.77,26.21,10.48,42.69,13.99c10.32,2.26,20.45-4.38,22.64-14.68c2.22-10.33-4.38-20.45-14.7-22.64
		c-13.42-2.85-24.81-6.54-33.83-10.96c-22.21-10.89-25.06-23.43-25.06-33.15c0-43.4,84.39-52.48,155.17-52.48
		c102.96,0,155.15,17.5,155.15,51.97c0,43.37-84.36,52.46-155.15,52.46c-10.55,0-19.1,8.55-19.1,19.08
		c0,10.56,8.56,19.08,19.1,19.08c47.81,0,193.36,0,193.36-90.62C388.11,331.83,277.77,322.49,194.75,322.49z"/>
</g>
</svg>
