<?xml version="1.0" encoding="utf-8"?>
<!-- Generator: Adobe Illustrator 24.0.1, SVG Export Plug-In . SVG Version: 6.00 Build 0)  -->
<svg version="1.1" id="Layer_1" xmlns="http://www.w3.org/2000/svg" xmlns:xlink="http://www.w3.org/1999/xlink" x="0px" y="0px"
	 viewBox="0 0 512 512" style="enable-background:new 0 0 512 512;" xml:space="preserve">
<style type="text/css">
	.st0{fill:#3F3F3F;}
	.st1{fill-rule:evenodd;clip-rule:evenodd;fill:#EF6F0B;}
</style>
<path class="st1" d="M284.34,53.1c-8.93,9.13-8.93,23.88,0.06,32.94l102.1,103.18l2.36,2.08c9.02,6.95,21.88,6.22,30.07-2.15
	c4.47-4.56,6.7-10.5,6.7-16.43c0-5.99-2.24-11.95-6.76-16.52L316.81,53.03l-2.36-2.08C305.43,44.04,292.53,44.76,284.34,53.1z
	 M23.89,233.49c-11.31,1.44-20.07,11.24-20.07,23.1c0,12.86,10.28,23.29,22.95,23.29h403.37L284.41,427.15l-2.06,2.38
	c-6.87,9.11-6.19,22.2,2,30.57c8.94,9.1,23.47,9.13,32.43,0.06l185.1-187.08l2.04-2.34c3.1-4.1,4.72-9.1,4.72-14.15
	c0-3.01-0.58-6.02-1.74-8.88c-3.55-8.73-11.9-14.41-21.2-14.41H26.76L23.89,233.49z"/>
</svg>
