<?xml version="1.0" encoding="utf-8"?>
<!-- Generator: Adobe Illustrator 24.0.1, SVG Export Plug-In . SVG Version: 6.00 Build 0)  -->
<svg version="1.1" id="Layer_1" xmlns="http://www.w3.org/2000/svg" xmlns:xlink="http://www.w3.org/1999/xlink" x="0px" y="0px"
	 viewBox="0 0 512 512" style="enable-background:new 0 0 512 512;" xml:space="preserve">
<style type="text/css">
	.st0{fill-rule:evenodd;clip-rule:evenodd;fill:#3F3F3F;}
	.st1{fill:#3F3F3F;}
</style>
<path class="st0" d="M120.62,137.06c0,75.54,61.68,137.03,137.49,137.03s137.46-61.49,137.46-137.03C395.57,61.49,333.92,0,258.11,0
	S120.62,61.49,120.62,137.06z M157.52,137.06c0-55.29,45.12-100.27,100.59-100.27c55.47,0,100.59,44.98,100.59,100.27
	c0,55.27-45.12,100.25-100.59,100.25C202.64,237.31,157.52,192.33,157.52,137.06z"/>
<path class="st1" d="M232.01,511.62c8.55,0.26,17.26,0.38,26.09,0.38c87.64,0,204.15-9.75,204.15-93.95
	c0-94.49-153.67-94.49-204.15-94.49c-87.64,0-204.15,9.75-204.15,93.98c0,25.22,11.76,59.24,67.79,78.15
	c9.68,3.33,20.11-1.92,23.39-11.52c3.26-9.6-1.9-20.02-11.56-23.27c-38.34-12.95-42.76-30.95-42.76-43.37
	c0-37.96,56.29-57.21,167.28-57.21s167.28,19.43,167.28,57.73c0,37.94-56.29,57.16-167.28,57.16c-8.47,0-16.82-0.1-25.04-0.33
	c-9.86,0.08-18.64,7.71-18.93,17.84C213.83,502.89,221.84,511.36,232.01,511.62z"/>
</svg>
