<?xml version="1.0" encoding="utf-8"?>
<!-- Generator: Adobe Illustrator 24.0.1, SVG Export Plug-In . SVG Version: 6.00 Build 0)  -->
<svg version="1.1" id="Layer_1" xmlns="http://www.w3.org/2000/svg" xmlns:xlink="http://www.w3.org/1999/xlink" x="0px" y="0px"
	 viewBox="0 0 512 512" style="enable-background:new 0 0 512 512;" xml:space="preserve">
<style type="text/css">
	.st0{fill:#3F3F3F;}
	.st1{fill-rule:evenodd;clip-rule:evenodd;fill:#EF6F0B;}
</style>
<g id="icon_1_">
	<g id="Calendar">
		<path id="Calendar_2" class="st1" d="M362.91,20.9v26.25c76.32,7.4,115.36,49.58,115.36,125.42v209.78
			c0,84.36-48.08,127.21-142.71,127.21H164.4c-94.62,0-142.71-42.85-142.71-127.21V172.57c0-50.48,17.2-86.6,52.49-107.69
			c5.56-3.8,12.76-4.06,18.58-0.68c5.82,3.38,9.25,9.82,8.87,16.62c-0.39,6.8-4.53,12.8-10.69,15.48
			c-23.38,13.91-34.41,38.14-34.41,76.28v6.73h321.81c9.62,0,17.43,7.94,17.43,17.72c0,9.79-7.8,17.73-17.43,17.73H56.54v167.6
			c0,64.39,31.32,91.09,107.86,91.54h171.16c75.43,0,107.64-27.37,107.64-91.76V172.35c0-56.09-24.48-83.24-80.29-89.74v17.05
			c-1.29,9.09-9.11,15.72-18.13,15.38c-9.02-0.35-16.33-7.56-16.94-16.72V19.33c0.17-4.74,2.2-9.22,5.65-12.42
			c3.44-3.21,8-4.87,12.66-4.63C355.75,2.88,363.16,11.12,362.91,20.9z M166.49,111.15c-3.32,3.33-7.81,5.17-12.47,5.11
			c-9.54-0.24-17.11-8.24-16.98-17.95V20.9c1-9.08,8.55-15.95,17.54-15.95c8.98,0,16.53,6.86,17.54,15.95v24.46h99.7
			c9.62,0,17.43,7.94,17.43,17.72c0,9.79-7.8,17.72-17.43,17.72H171.67v17.72C171.68,103.27,169.81,107.82,166.49,111.15z
			 M356.29,271.52c-12.18,0-22.06,10.04-22.06,22.44s9.88,22.44,22.06,22.44c12.18,0,22.06-10.04,22.06-22.44
			c0-5.99-2.35-11.73-6.54-15.95c-4.18-4.21-9.85-6.55-15.74-6.49H356.29z M228.36,293.95c0-12.39,9.88-22.44,22.06-22.44
			c12.18,0,22.06,10.05,22.06,22.44c0,12.39-9.88,22.44-22.06,22.44C238.24,316.39,228.36,306.34,228.36,293.95z M144.77,271.52
			c-12.18,0-22.06,10.04-22.06,22.44s9.88,22.44,22.06,22.44c12.18,0,22.06-10.04,22.06-22.44c0-5.99-2.35-11.73-6.54-15.95
			c-4.18-4.21-9.85-6.55-15.74-6.49H144.77z M334.23,384.82c0-12.39,9.88-22.44,22.06-22.44h-0.22c5.89-0.06,11.55,2.28,15.74,6.49
			c4.18,4.21,6.54,9.95,6.54,15.94c0,12.39-9.88,22.44-22.06,22.44C344.11,407.25,334.23,397.21,334.23,384.82z M250.42,362.38
			c-12.18,0-22.06,10.04-22.06,22.44c0,12.39,9.88,22.44,22.06,22.44c12.18,0,22.06-10.04,22.06-22.44
			C272.47,372.43,262.6,362.38,250.42,362.38z M122.71,384.82c0-12.39,9.88-22.44,22.06-22.44h-0.22
			c5.89-0.06,11.55,2.28,15.74,6.49c4.18,4.21,6.54,9.95,6.54,15.94c0,12.39-9.88,22.44-22.06,22.44
			C132.58,407.25,122.71,397.21,122.71,384.82z"/>
	</g>
</g>
</svg>
